<?xml version="1.0" encoding="UTF-8" standalone="no"?>
<!-- Created with Inkscape (http://www.inkscape.org/) -->

<svg
   xmlns:dc="http://purl.org/dc/elements/1.1/"
   xmlns:cc="http://creativecommons.org/ns#"
   xmlns:rdf="http://www.w3.org/1999/02/22-rdf-syntax-ns#"
   xmlns:svg="http://www.w3.org/2000/svg"
   xmlns="http://www.w3.org/2000/svg"
   xmlns:sodipodi="http://sodipodi.sourceforge.net/DTD/sodipodi-0.dtd"
   xmlns:inkscape="http://www.inkscape.org/namespaces/inkscape"
   width="744.09448819"
   height="1052.3622047"
   id="svg11893"
   version="1.1"
   inkscape:version="0.48.1 r9760"
   sodipodi:docname="New document 15">
  <defs
     id="defs11895" />
  <sodipodi:namedview
     id="base"
     pagecolor="#ffffff"
     bordercolor="#666666"
     borderopacity="1.0"
     inkscape:pageopacity="0.0"
     inkscape:pageshadow="2"
     inkscape:zoom="0.94"
     inkscape:cx="375"
     inkscape:cy="690.21277"
     inkscape:document-units="px"
     inkscape:current-layer="layer1"
     showgrid="false"
     inkscape:window-width="945"
     inkscape:window-height="564"
     inkscape:window-x="303"
     inkscape:window-y="9"
     inkscape:window-maximized="0" />
  <metadata
     id="metadata11898">
    <rdf:RDF>
      <cc:Work
         rdf:about="">
        <dc:format>image/svg+xml</dc:format>
        <dc:type
           rdf:resource="http://purl.org/dc/dcmitype/StillImage" />
        <dc:title></dc:title>
      </cc:Work>
    </rdf:RDF>
  </metadata>
  <g
     inkscape:label="Layer 1"
     inkscape:groupmode="layer"
     id="layer1">
    <g
       id="g12019">
      <g
         transform="translate(24.619105,173.20011)"
         id="g3251">
	<g
   id="g3253">
		<path
   d="m 202.018,180.344 c 4.408,18.072 -6.672,36.298 -24.746,40.706 -18.074,4.407 -36.299,-6.672 -40.707,-24.744 -4.408,-18.075 6.672,-36.3 24.746,-40.708 7.837,-1.911 15.701,-0.91 22.457,2.311"
   id="path3255"
   inkscape:connector-curvature="0"
   style="fill:none;stroke:#66a41f;stroke-width:4.08309984" />

		<polygon
   points="178.971,163.294 173.667,160.766 182.9,157.495 179.627,148.264 184.931,150.792 188.202,160.022 "
   id="polygon3257"
   style="fill:#66a41f" />

	</g>

</g>
      <path
         d="m 206.56011,358.23411 -5.231,-7.472 8.833,-6.185 c -7.926,-7.614 -20.374,-8.827 -29.716,-2.285 -10.622,7.437 -13.203,22.077 -5.765,32.698 7.436,10.62 22.077,13.203 32.697,5.766 9.342,-6.543 12.46,-18.656 8.016,-28.705 l -8.834,6.183 z"
         id="path3259"
         inkscape:connector-curvature="0"
         style="fill:#266131" />
    </g>
  </g>
</svg>
